<svg width="221" height="246" viewBox="0 0 221 246" fill="none" xmlns="http://www.w3.org/2000/svg">
<path d="M135.848 164.058C126.842 165.216 118.226 166.555 109.561 167.362C101.823 168.088 94.1162 167.381 86.6444 164.984C71.5833 160.148 65.0702 148.535 68.6082 132.956C70.4328 124.916 73.8842 117.577 78.5788 110.938C92.1864 91.7177 107.285 73.8985 126.614 60.2087C130.665 57.3431 134.79 54.5839 138.959 51.8997C139.93 51.274 141.236 50.9049 142.392 50.8924C150.507 50.811 158.629 50.8361 166.744 50.8548C170.968 50.8611 173.152 53.076 173.158 57.3681C173.17 67.454 173.17 77.5461 173.158 87.632C173.152 92.0681 171.036 94.2266 166.601 94.2391C155.858 94.2642 145.108 94.2454 134.364 94.2517C133.529 94.2517 132.688 94.2517 131.537 94.2517C131.537 95.309 131.537 96.1412 131.537 96.9733C131.537 107.841 131.543 118.716 131.537 129.584C131.531 134.245 129.508 136.297 124.906 136.297C115.01 136.303 105.114 136.31 95.2172 136.297C90.7947 136.291 88.7041 134.176 88.6856 129.709C88.6608 122.357 88.6608 115.005 88.6423 107.66C88.6423 107.61 88.5495 107.56 88.5 107.51C88.3639 107.522 88.1536 107.478 88.0918 107.554C81.4179 116.063 75.4182 124.941 73.8038 136.028C72.4492 145.313 75.9748 152.371 83.793 157.251C89.434 160.773 95.7491 162.238 102.244 162.976C112.4 164.133 122.445 163.145 132.459 161.368C134.191 161.061 134.84 160.385 135.131 158.652C135.768 154.855 138.922 152.464 142.77 152.558C146.332 152.64 149.406 155.242 149.994 158.665C150.65 162.525 148.794 166.017 145.336 167.406C141.724 168.87 138.359 167.6 135.848 164.058ZM142.479 163.933C144.458 163.971 146.178 162.306 146.221 160.298C146.264 158.327 144.569 156.55 142.615 156.506C140.667 156.469 138.916 158.177 138.885 160.16C138.854 162.175 140.487 163.896 142.479 163.933Z" fill="#777A95"/>
<path d="M105.639 50.98C93.7637 63.8501 83.7312 77.5524 75.7212 92.7501C75.4182 93.3319 74.4533 93.8888 73.7914 93.895C66.6784 93.9764 59.5715 93.9764 52.4585 93.9201C49.5452 93.895 47.269 91.749 47.2443 88.7395C47.1577 77.9528 47.1453 67.16 47.2505 56.3733C47.2814 53.076 49.8112 51.0113 53.343 51.005C66.097 50.98 78.851 50.9862 91.605 50.98C96.1573 50.98 100.71 50.98 105.639 50.98Z" fill="#009899"/>
<path d="M131.828 22.2678C131.791 34.5122 122.123 44.1789 109.95 44.1476C97.9511 44.1163 88.3763 34.2369 88.4072 21.9236C88.432 9.72298 98.2665 -0.125146 110.291 -1.07406e-05C122.358 0.131381 131.865 9.96074 131.828 22.2678Z" fill="#009899"/>
<path d="M3.88 212C2.73333 212 1.8 211.653 1.08 210.96C0.36 210.267 0 209.36 0 208.24V184H13.36C15.4933 184 17.36 184.4 18.96 185.2C20.5867 186 21.84 187.133 22.72 188.6C23.6267 190.067 24.08 191.76 24.08 193.68V201.52C24.08 204.96 23.1867 207.573 21.4 209.36C19.6133 211.12 16.9867 212 13.52 212H3.88ZM13.36 207.12C15.0667 207.12 16.36 206.627 17.24 205.64C18.12 204.653 18.56 203.2 18.56 201.28V193.92C18.56 192.4 18.0667 191.187 17.08 190.28C16.0933 189.347 14.8 188.88 13.2 188.88H5.52V207.12H13.36Z" fill="#009899"/>
<path d="M35.6459 212.32C33.9659 212.32 32.4726 212 31.1659 211.36C29.8859 210.693 28.8859 209.76 28.1659 208.56C27.4726 207.36 27.1259 205.973 27.1259 204.4V199.72C27.1259 198.147 27.4859 196.76 28.2059 195.56C28.9259 194.333 29.9259 193.387 31.2059 192.72C32.5126 192.053 34.0059 191.72 35.6859 191.72H39.2859C40.9659 191.72 42.4459 192.053 43.7259 192.72C45.0326 193.387 46.0459 194.333 46.7659 195.56C47.4859 196.76 47.8459 198.147 47.8459 199.72V204.4C47.8459 205.973 47.4859 207.36 46.7659 208.56C46.0459 209.76 45.0326 210.693 43.7259 211.36C42.4459 212 40.9526 212.32 39.2459 212.32H35.6459ZM39.1659 207.64C40.1526 207.64 40.9393 207.307 41.5259 206.64C42.1126 205.947 42.4059 205.053 42.4059 203.96V200.08C42.4059 198.987 42.1126 198.107 41.5259 197.44C40.9393 196.747 40.1659 196.4 39.2059 196.4H35.7659C34.8059 196.4 34.0326 196.747 33.4459 197.44C32.8593 198.107 32.5659 198.987 32.5659 200.08V203.96C32.5659 205.053 32.8593 205.947 33.4459 206.64C34.0326 207.307 34.7926 207.64 35.7259 207.64H39.1659Z" fill="#009899"/>
<path d="M59.3959 212.32C57.7159 212.32 56.2226 211.987 54.9159 211.32C53.6359 210.653 52.6359 209.72 51.9159 208.52C51.2226 207.32 50.8759 205.933 50.8759 204.36V199.68C50.8759 198.107 51.2226 196.72 51.9159 195.52C52.6359 194.32 53.6359 193.387 54.9159 192.72C56.1959 192.053 57.6759 191.72 59.3559 191.72H62.5159C64.1159 191.72 65.5293 192.04 66.7559 192.68C67.9826 193.32 68.9293 194.227 69.5959 195.4C70.2626 196.547 70.5959 197.88 70.5959 199.4H65.1959C65.1959 198.493 64.9426 197.773 64.4359 197.24C63.9559 196.68 63.3159 196.4 62.5159 196.4H59.4359C58.5026 196.4 57.7426 196.747 57.1559 197.44C56.5959 198.107 56.3159 198.987 56.3159 200.08V203.96C56.3159 205.053 56.6093 205.947 57.1959 206.64C57.7826 207.307 58.5426 207.64 59.4759 207.64H62.5559C63.4093 207.64 64.0893 207.333 64.5959 206.72C65.1293 206.107 65.3959 205.293 65.3959 204.28H70.7959C70.7959 206.707 70.0359 208.653 68.5159 210.12C67.0226 211.587 65.0359 212.32 62.5559 212.32H59.3959Z" fill="#009899"/>
<path d="M82.6225 212C80.2758 212 78.5558 211.467 77.4625 210.4C76.3692 209.333 75.8225 207.68 75.8225 205.44V196.68H72.3025V192.04H75.9825V186H81.2625V192.04H86.4625V196.68H81.2625V205.2C81.2625 205.947 81.3958 206.493 81.6625 206.84C81.9558 207.187 82.4092 207.36 83.0225 207.36H86.4625V212H82.6225Z" fill="#009899"/>
<path d="M97.4037 212.32C95.7237 212.32 94.2304 212 92.9238 211.36C91.6438 210.693 90.6438 209.76 89.9238 208.56C89.2304 207.36 88.8838 205.973 88.8838 204.4V199.72C88.8838 198.147 89.2438 196.76 89.9638 195.56C90.6838 194.333 91.6838 193.387 92.9638 192.72C94.2704 192.053 95.7637 191.72 97.4437 191.72H101.044C102.724 191.72 104.204 192.053 105.484 192.72C106.79 193.387 107.804 194.333 108.524 195.56C109.244 196.76 109.604 198.147 109.604 199.72V204.4C109.604 205.973 109.244 207.36 108.524 208.56C107.804 209.76 106.79 210.693 105.484 211.36C104.204 212 102.71 212.32 101.004 212.32H97.4037ZM100.924 207.64C101.91 207.64 102.697 207.307 103.284 206.64C103.87 205.947 104.164 205.053 104.164 203.96V200.08C104.164 198.987 103.87 198.107 103.284 197.44C102.697 196.747 101.924 196.4 100.964 196.4H97.5238C96.5638 196.4 95.7904 196.747 95.2038 197.44C94.6171 198.107 94.3238 198.987 94.3238 200.08V203.96C94.3238 205.053 94.6171 205.947 95.2038 206.64C95.7904 207.307 96.5504 207.64 97.4837 207.64H100.924Z" fill="#009899"/>
<path d="M113.434 192.04H118.474V194.6C118.98 193.827 119.7 193.2 120.634 192.72C121.594 192.213 122.594 191.96 123.634 191.96H126.354V196.68H123.634C122.22 196.68 121.074 197.107 120.194 197.96C119.314 198.813 118.874 199.907 118.874 201.24V212H113.434V192.04Z" fill="#009899"/>
<path d="M141.666 206.64H130.266C129.146 206.64 128.28 206.4 127.666 205.92C127.053 205.44 126.746 204.747 126.746 203.84V202.72L141.626 184H147.186V201.76H150.706V206.64H147.186V212H141.666V206.64ZM141.826 202V190.92H141.786L133.026 202H141.826Z" fill="#009899"/>
<path d="M161.35 220.12C159.19 220.12 157.403 219.507 155.99 218.28C154.603 217.08 153.83 215.493 153.67 213.52H159.03C159.083 214.107 159.323 214.573 159.75 214.92C160.177 215.293 160.71 215.48 161.35 215.48H164.63C165.457 215.48 166.123 215.133 166.63 214.44C167.163 213.773 167.43 212.893 167.43 211.8V209.2C166.817 210.027 166.11 210.68 165.31 211.16C164.537 211.613 163.763 211.84 162.99 211.84H160.35C158.243 211.84 156.55 211.147 155.27 209.76C153.99 208.347 153.35 206.48 153.35 204.16V192.04H158.79V204.24C158.79 205.12 159.003 205.84 159.43 206.4C159.883 206.933 160.47 207.2 161.19 207.2H163.51C164.39 207.2 165.19 206.84 165.91 206.12C166.63 205.373 167.137 204.4 167.43 203.2V192.04H172.87V211.8C172.87 213.453 172.523 214.907 171.83 216.16C171.163 217.413 170.203 218.387 168.95 219.08C167.697 219.773 166.257 220.12 164.63 220.12H161.35Z" fill="#009899"/>
<path d="M185.216 212.32C183.536 212.32 182.043 212 180.736 211.36C179.456 210.693 178.456 209.76 177.736 208.56C177.043 207.36 176.696 205.973 176.696 204.4V199.72C176.696 198.147 177.056 196.76 177.776 195.56C178.496 194.333 179.496 193.387 180.776 192.72C182.083 192.053 183.576 191.72 185.256 191.72H188.856C190.536 191.72 192.016 192.053 193.296 192.72C194.603 193.387 195.616 194.333 196.336 195.56C197.056 196.76 197.416 198.147 197.416 199.72V204.4C197.416 205.973 197.056 207.36 196.336 208.56C195.616 209.76 194.603 210.693 193.296 211.36C192.016 212 190.523 212.32 188.816 212.32H185.216ZM188.736 207.64C189.723 207.64 190.51 207.307 191.096 206.64C191.683 205.947 191.976 205.053 191.976 203.96V200.08C191.976 198.987 191.683 198.107 191.096 197.44C190.51 196.747 189.736 196.4 188.776 196.4H185.336C184.376 196.4 183.603 196.747 183.016 197.44C182.43 198.107 182.136 198.987 182.136 200.08V203.96C182.136 205.053 182.43 205.947 183.016 206.64C183.603 207.307 184.363 207.64 185.296 207.64H188.736Z" fill="#009899"/>
<path d="M208.006 212.32C205.9 212.32 204.206 211.613 202.926 210.2C201.646 208.76 201.006 206.88 201.006 204.56V192.04H206.446V204.64C206.446 205.52 206.66 206.24 207.086 206.8C207.54 207.333 208.126 207.6 208.846 207.6H211.166C212.046 207.6 212.846 207.24 213.566 206.52C214.286 205.773 214.793 204.8 215.086 203.6V192.04H220.526V212H215.486V209.44C214.873 210.293 214.113 210.987 213.206 211.52C212.326 212.053 211.473 212.32 210.646 212.32H208.006Z" fill="#009899"/>
<path d="M42.0882 235.556C42.0882 236.522 41.9352 237.401 41.6292 238.193C41.3232 238.985 40.8912 239.663 40.3332 240.227C39.7752 240.791 39.1062 241.229 38.3262 241.541C37.5462 241.847 36.6822 242 35.7342 242H30.9102V229.103H35.7342C36.6822 229.103 37.5462 229.259 38.3262 229.571C39.1062 229.877 39.7752 230.315 40.3332 230.885C40.8912 231.449 41.3232 232.127 41.6292 232.919C41.9352 233.711 42.0882 234.59 42.0882 235.556ZM40.2972 235.556C40.2972 234.764 40.1892 234.056 39.9732 233.432C39.7572 232.808 39.4512 232.28 39.0552 231.848C38.6592 231.416 38.1792 231.086 37.6152 230.858C37.0512 230.63 36.4242 230.516 35.7342 230.516H32.6652V240.587H35.7342C36.4242 240.587 37.0512 240.473 37.6152 240.245C38.1792 240.017 38.6592 239.69 39.0552 239.264C39.4512 238.832 39.7572 238.304 39.9732 237.68C40.1892 237.056 40.2972 236.348 40.2972 235.556Z" fill="#777A95"/>
<path d="M47.901 232.739C48.567 232.739 49.167 232.85 49.701 233.072C50.241 233.294 50.697 233.609 51.069 234.017C51.447 234.425 51.735 234.92 51.933 235.502C52.137 236.078 52.239 236.723 52.239 237.437C52.239 238.157 52.137 238.805 51.933 239.381C51.735 239.957 51.447 240.449 51.069 240.857C50.697 241.265 50.241 241.58 49.701 241.802C49.167 242.018 48.567 242.126 47.901 242.126C47.235 242.126 46.632 242.018 46.092 241.802C45.558 241.58 45.102 241.265 44.724 240.857C44.346 240.449 44.055 239.957 43.851 239.381C43.647 238.805 43.545 238.157 43.545 237.437C43.545 236.723 43.647 236.078 43.851 235.502C44.055 234.92 44.346 234.425 44.724 234.017C45.102 233.609 45.558 233.294 46.092 233.072C46.632 232.85 47.235 232.739 47.901 232.739ZM47.901 240.875C48.801 240.875 49.473 240.575 49.917 239.975C50.361 239.369 50.583 238.526 50.583 237.446C50.583 236.36 50.361 235.514 49.917 234.908C49.473 234.302 48.801 233.999 47.901 233.999C47.445 233.999 47.049 234.077 46.713 234.233C46.377 234.389 46.095 234.614 45.867 234.908C45.645 235.202 45.477 235.565 45.363 235.997C45.255 236.423 45.201 236.906 45.201 237.446C45.201 237.986 45.255 238.469 45.363 238.895C45.477 239.321 45.645 239.681 45.867 239.975C46.095 240.263 46.377 240.485 46.713 240.641C47.049 240.797 47.445 240.875 47.901 240.875Z" fill="#777A95"/>
<path d="M60.4319 234.503C60.3839 234.569 60.3359 234.62 60.2879 234.656C60.2399 234.692 60.1709 234.71 60.0809 234.71C59.9909 234.71 59.8919 234.674 59.7839 234.602C59.6819 234.524 59.5499 234.44 59.3879 234.35C59.2259 234.26 59.0279 234.179 58.7939 234.107C58.5659 234.029 58.2839 233.99 57.9479 233.99C57.5039 233.99 57.1109 234.071 56.7689 234.233C56.4269 234.389 56.1389 234.617 55.9049 234.917C55.6769 235.217 55.5029 235.58 55.3829 236.006C55.2689 236.432 55.2119 236.909 55.2119 237.437C55.2119 237.989 55.2749 238.481 55.4009 238.913C55.5269 239.339 55.7039 239.699 55.9319 239.993C56.1599 240.281 56.4359 240.503 56.7599 240.659C57.0899 240.809 57.4589 240.884 57.8669 240.884C58.2569 240.884 58.5779 240.839 58.8299 240.749C59.0819 240.653 59.2919 240.548 59.4599 240.434C59.6279 240.32 59.7659 240.218 59.8739 240.128C59.9819 240.032 60.0899 239.984 60.1979 239.984C60.3359 239.984 60.4379 240.035 60.5039 240.137L60.9539 240.722C60.5579 241.208 60.0629 241.565 59.4689 241.793C58.8749 242.015 58.2479 242.126 57.5879 242.126C57.0179 242.126 56.4869 242.021 55.9949 241.811C55.5089 241.601 55.0859 241.298 54.7259 240.902C54.3659 240.5 54.0809 240.008 53.8709 239.426C53.6669 238.844 53.5649 238.181 53.5649 237.437C53.5649 236.759 53.6579 236.132 53.8439 235.556C54.0359 234.98 54.3119 234.485 54.6719 234.071C55.0379 233.651 55.4879 233.324 56.0219 233.09C56.5559 232.856 57.1679 232.739 57.8579 232.739C58.4939 232.739 59.0579 232.844 59.5499 233.054C60.0419 233.258 60.4769 233.549 60.8549 233.927L60.4319 234.503Z" fill="#777A95"/>
<path d="M65.3783 242.144C64.6582 242.144 64.1032 241.943 63.7132 241.541C63.3293 241.139 63.1372 240.56 63.1372 239.804V234.224H62.0392C61.9432 234.224 61.8622 234.197 61.7962 234.143C61.7302 234.083 61.6973 233.993 61.6973 233.873V233.234L63.1912 233.045L63.5602 230.228C63.5723 230.138 63.6113 230.066 63.6772 230.012C63.7433 229.952 63.8272 229.922 63.9292 229.922H64.7393V233.063H67.3493V234.224H64.7393V239.696C64.7393 240.08 64.8323 240.365 65.0182 240.551C65.2042 240.737 65.4443 240.83 65.7383 240.83C65.9062 240.83 66.0502 240.809 66.1702 240.767C66.2962 240.719 66.4043 240.668 66.4942 240.614C66.5842 240.56 66.6593 240.512 66.7193 240.47C66.7853 240.422 66.8423 240.398 66.8903 240.398C66.9743 240.398 67.0492 240.449 67.1152 240.551L67.5833 241.316C67.3073 241.574 66.9743 241.778 66.5843 241.928C66.1943 242.072 65.7923 242.144 65.3783 242.144Z" fill="#777A95"/>
<path d="M73.0201 232.739C73.6861 232.739 74.2861 232.85 74.8201 233.072C75.3601 233.294 75.8161 233.609 76.1881 234.017C76.5661 234.425 76.8541 234.92 77.0521 235.502C77.2561 236.078 77.3581 236.723 77.3581 237.437C77.3581 238.157 77.2561 238.805 77.0521 239.381C76.8541 239.957 76.5661 240.449 76.1881 240.857C75.8161 241.265 75.3601 241.58 74.8201 241.802C74.2861 242.018 73.6861 242.126 73.0201 242.126C72.3541 242.126 71.7511 242.018 71.2111 241.802C70.6771 241.58 70.2211 241.265 69.8431 240.857C69.4651 240.449 69.1741 239.957 68.9701 239.381C68.7661 238.805 68.6641 238.157 68.6641 237.437C68.6641 236.723 68.7661 236.078 68.9701 235.502C69.1741 234.92 69.4651 234.425 69.8431 234.017C70.2211 233.609 70.6771 233.294 71.2111 233.072C71.7511 232.85 72.3541 232.739 73.0201 232.739ZM73.0201 240.875C73.9201 240.875 74.5921 240.575 75.0361 239.975C75.4801 239.369 75.7021 238.526 75.7021 237.446C75.7021 236.36 75.4801 235.514 75.0361 234.908C74.5921 234.302 73.9201 233.999 73.0201 233.999C72.5641 233.999 72.1681 234.077 71.8321 234.233C71.4961 234.389 71.2141 234.614 70.9861 234.908C70.7641 235.202 70.5961 235.565 70.4821 235.997C70.3741 236.423 70.3201 236.906 70.3201 237.446C70.3201 237.986 70.3741 238.469 70.4821 238.895C70.5961 239.321 70.7641 239.681 70.9861 239.975C71.2141 240.263 71.4961 240.485 71.8321 240.641C72.1681 240.797 72.5641 240.875 73.0201 240.875Z" fill="#777A95"/>
<path d="M79.332 242V232.883H80.25C80.424 232.883 80.544 232.916 80.61 232.982C80.676 233.048 80.721 233.162 80.745 233.324L80.8531 234.746C81.165 234.11 81.549 233.615 82.0051 233.261C82.467 232.901 83.007 232.721 83.625 232.721C83.877 232.721 84.105 232.751 84.309 232.811C84.513 232.865 84.702 232.943 84.876 233.045L84.669 234.242C84.627 234.392 84.534 234.467 84.39 234.467C84.306 234.467 84.177 234.44 84.003 234.386C83.829 234.326 83.586 234.296 83.274 234.296C82.716 234.296 82.248 234.458 81.87 234.782C81.498 235.106 81.186 235.577 80.934 236.195V242H79.332Z" fill="#777A95"/>
<path d="M96.7683 242H96.0573C95.9013 242 95.7753 241.976 95.6793 241.928C95.5833 241.88 95.5203 241.778 95.4903 241.622L95.3103 240.776C95.0703 240.992 94.8363 241.187 94.6083 241.361C94.3803 241.529 94.1403 241.673 93.8883 241.793C93.6363 241.907 93.3663 241.994 93.0783 242.054C92.7963 242.114 92.4813 242.144 92.1333 242.144C91.7793 242.144 91.4463 242.096 91.1343 242C90.8283 241.898 90.5613 241.748 90.3333 241.55C90.1053 241.352 89.9223 241.103 89.7843 240.803C89.6523 240.497 89.5863 240.137 89.5863 239.723C89.5863 239.363 89.6853 239.018 89.8833 238.688C90.0813 238.352 90.3993 238.055 90.8373 237.797C91.2813 237.539 91.8603 237.329 92.5743 237.167C93.2883 236.999 94.1613 236.903 95.1933 236.879V236.168C95.1933 235.46 95.0403 234.926 94.7343 234.566C94.4343 234.2 93.9873 234.017 93.3933 234.017C93.0033 234.017 92.6733 234.068 92.4033 234.17C92.1393 234.266 91.9083 234.377 91.7103 234.503C91.5183 234.623 91.3503 234.734 91.2063 234.836C91.0683 234.932 90.9303 234.98 90.7923 234.98C90.6843 234.98 90.5883 234.953 90.5043 234.899C90.4263 234.839 90.3633 234.767 90.3153 234.683L90.0273 234.17C90.5313 233.684 91.0743 233.321 91.6563 233.081C92.2383 232.841 92.8833 232.721 93.5913 232.721C94.1013 232.721 94.5543 232.805 94.9503 232.973C95.3463 233.141 95.6793 233.375 95.9493 233.675C96.2193 233.975 96.4233 234.338 96.5613 234.764C96.6993 235.19 96.7683 235.658 96.7683 236.168V242ZM92.6103 241.019C92.8923 241.019 93.1503 240.992 93.3843 240.938C93.6183 240.878 93.8373 240.797 94.0413 240.695C94.2513 240.587 94.4493 240.458 94.6353 240.308C94.8273 240.158 95.0133 239.987 95.1933 239.795V237.896C94.4553 237.92 93.8283 237.98 93.3123 238.076C92.7963 238.166 92.3763 238.286 92.0523 238.436C91.7283 238.586 91.4913 238.763 91.3413 238.967C91.1973 239.171 91.1253 239.399 91.1253 239.651C91.1253 239.891 91.1643 240.098 91.2423 240.272C91.3203 240.446 91.4253 240.59 91.5573 240.704C91.6893 240.812 91.8453 240.893 92.0253 240.947C92.2053 240.995 92.4003 241.019 92.6103 241.019Z" fill="#777A95"/>
<path d="M99.1953 245.087V232.883H100.149C100.377 232.883 100.521 232.994 100.581 233.216L100.716 234.296C101.106 233.822 101.55 233.441 102.048 233.153C102.552 232.865 103.131 232.721 103.785 232.721C104.307 232.721 104.781 232.823 105.207 233.027C105.633 233.225 105.996 233.522 106.296 233.918C106.596 234.308 106.827 234.794 106.989 235.376C107.151 235.958 107.232 236.627 107.232 237.383C107.232 238.055 107.142 238.682 106.962 239.264C106.782 239.84 106.524 240.341 106.188 240.767C105.852 241.187 105.438 241.52 104.946 241.766C104.46 242.006 103.911 242.126 103.299 242.126C102.735 242.126 102.252 242.033 101.85 241.847C101.454 241.661 101.103 241.397 100.797 241.055V245.087H99.1953ZM103.254 234.017C102.732 234.017 102.273 234.137 101.877 234.377C101.487 234.617 101.127 234.956 100.797 235.394V239.804C101.091 240.2 101.412 240.479 101.76 240.641C102.114 240.803 102.507 240.884 102.939 240.884C103.785 240.884 104.436 240.581 104.892 239.975C105.348 239.369 105.576 238.505 105.576 237.383C105.576 236.789 105.522 236.279 105.414 235.853C105.312 235.427 105.162 235.079 104.964 234.809C104.766 234.533 104.523 234.332 104.235 234.206C103.947 234.08 103.62 234.017 103.254 234.017Z" fill="#777A95"/>
<path d="M109.127 245.087V232.883H110.081C110.309 232.883 110.453 232.994 110.513 233.216L110.648 234.296C111.038 233.822 111.482 233.441 111.98 233.153C112.484 232.865 113.063 232.721 113.717 232.721C114.239 232.721 114.713 232.823 115.139 233.027C115.565 233.225 115.928 233.522 116.228 233.918C116.528 234.308 116.759 234.794 116.921 235.376C117.083 235.958 117.164 236.627 117.164 237.383C117.164 238.055 117.074 238.682 116.894 239.264C116.714 239.84 116.456 240.341 116.12 240.767C115.784 241.187 115.37 241.52 114.878 241.766C114.392 242.006 113.843 242.126 113.231 242.126C112.667 242.126 112.184 242.033 111.782 241.847C111.386 241.661 111.035 241.397 110.729 241.055V245.087H109.127ZM113.186 234.017C112.664 234.017 112.205 234.137 111.809 234.377C111.419 234.617 111.059 234.956 110.729 235.394V239.804C111.023 240.2 111.344 240.479 111.692 240.641C112.046 240.803 112.439 240.884 112.871 240.884C113.717 240.884 114.368 240.581 114.824 239.975C115.28 239.369 115.508 238.505 115.508 237.383C115.508 236.789 115.454 236.279 115.346 235.853C115.244 235.427 115.094 235.079 114.896 234.809C114.698 234.533 114.455 234.332 114.167 234.206C113.879 234.08 113.552 234.017 113.186 234.017Z" fill="#777A95"/>
<path d="M122.749 232.739C123.415 232.739 124.015 232.85 124.549 233.072C125.089 233.294 125.545 233.609 125.917 234.017C126.295 234.425 126.583 234.92 126.781 235.502C126.985 236.078 127.087 236.723 127.087 237.437C127.087 238.157 126.985 238.805 126.781 239.381C126.583 239.957 126.295 240.449 125.917 240.857C125.545 241.265 125.089 241.58 124.549 241.802C124.015 242.018 123.415 242.126 122.749 242.126C122.083 242.126 121.48 242.018 120.94 241.802C120.406 241.58 119.95 241.265 119.572 240.857C119.194 240.449 118.903 239.957 118.699 239.381C118.495 238.805 118.393 238.157 118.393 237.437C118.393 236.723 118.495 236.078 118.699 235.502C118.903 234.92 119.194 234.425 119.572 234.017C119.95 233.609 120.406 233.294 120.94 233.072C121.48 232.85 122.083 232.739 122.749 232.739ZM122.749 240.875C123.649 240.875 124.321 240.575 124.765 239.975C125.209 239.369 125.431 238.526 125.431 237.446C125.431 236.36 125.209 235.514 124.765 234.908C124.321 234.302 123.649 233.999 122.749 233.999C122.293 233.999 121.897 234.077 121.561 234.233C121.225 234.389 120.943 234.614 120.715 234.908C120.493 235.202 120.325 235.565 120.211 235.997C120.103 236.423 120.049 236.906 120.049 237.446C120.049 237.986 120.103 238.469 120.211 238.895C120.325 239.321 120.493 239.681 120.715 239.975C120.943 240.263 121.225 240.485 121.561 240.641C121.897 240.797 122.293 240.875 122.749 240.875Z" fill="#777A95"/>
<path d="M130.843 232.883V242H129.241V232.883H130.843ZM131.203 230.021C131.203 230.177 131.17 230.324 131.104 230.462C131.044 230.594 130.96 230.714 130.852 230.822C130.75 230.924 130.63 231.005 130.492 231.065C130.354 231.125 130.207 231.155 130.051 231.155C129.895 231.155 129.748 231.125 129.61 231.065C129.478 231.005 129.358 230.924 129.25 230.822C129.148 230.714 129.067 230.594 129.007 230.462C128.947 230.324 128.917 230.177 128.917 230.021C128.917 229.865 128.947 229.718 129.007 229.58C129.067 229.436 129.148 229.313 129.25 229.211C129.358 229.103 129.478 229.019 129.61 228.959C129.748 228.899 129.895 228.869 130.051 228.869C130.207 228.869 130.354 228.899 130.492 228.959C130.63 229.019 130.75 229.103 130.852 229.211C130.96 229.313 131.044 229.436 131.104 229.58C131.17 229.718 131.203 229.865 131.203 230.021Z" fill="#777A95"/>
<path d="M133.666 242V232.883H134.62C134.848 232.883 134.992 232.994 135.052 233.216L135.178 234.206C135.574 233.768 136.015 233.414 136.501 233.144C136.993 232.874 137.56 232.739 138.202 232.739C138.7 232.739 139.138 232.823 139.516 232.991C139.9 233.153 140.218 233.387 140.47 233.693C140.728 233.993 140.923 234.356 141.055 234.782C141.187 235.208 141.253 235.679 141.253 236.195V242H139.651V236.195C139.651 235.505 139.492 234.971 139.174 234.593C138.862 234.209 138.382 234.017 137.734 234.017C137.26 234.017 136.816 234.131 136.402 234.359C135.994 234.587 135.616 234.896 135.268 235.286V242H133.666Z" fill="#777A95"/>
<path d="M146.431 242.144C145.711 242.144 145.156 241.943 144.766 241.541C144.382 241.139 144.19 240.56 144.19 239.804V234.224H143.092C142.996 234.224 142.915 234.197 142.849 234.143C142.783 234.083 142.75 233.993 142.75 233.873V233.234L144.244 233.045L144.613 230.228C144.625 230.138 144.664 230.066 144.73 230.012C144.796 229.952 144.88 229.922 144.982 229.922H145.792V233.063H148.402V234.224H145.792V239.696C145.792 240.08 145.885 240.365 146.071 240.551C146.257 240.737 146.497 240.83 146.791 240.83C146.959 240.83 147.103 240.809 147.223 240.767C147.349 240.719 147.457 240.668 147.547 240.614C147.637 240.56 147.712 240.512 147.772 240.47C147.838 240.422 147.895 240.398 147.943 240.398C148.027 240.398 148.102 240.449 148.168 240.551L148.636 241.316C148.36 241.574 148.027 241.778 147.637 241.928C147.247 242.072 146.845 242.144 146.431 242.144Z" fill="#777A95"/>
<path d="M150.383 242V232.883H151.337C151.565 232.883 151.709 232.994 151.769 233.216L151.886 234.152C152.222 233.738 152.597 233.399 153.011 233.135C153.431 232.871 153.917 232.739 154.469 232.739C155.087 232.739 155.585 232.91 155.963 233.252C156.347 233.594 156.623 234.056 156.791 234.638C156.917 234.308 157.082 234.023 157.286 233.783C157.496 233.543 157.73 233.345 157.988 233.189C158.246 233.033 158.519 232.919 158.807 232.847C159.101 232.775 159.398 232.739 159.698 232.739C160.178 232.739 160.604 232.817 160.976 232.973C161.354 233.123 161.672 233.345 161.93 233.639C162.194 233.933 162.395 234.296 162.533 234.728C162.671 235.154 162.74 235.643 162.74 236.195V242H161.138V236.195C161.138 235.481 160.982 234.941 160.67 234.575C160.358 234.203 159.905 234.017 159.311 234.017C159.047 234.017 158.795 234.065 158.555 234.161C158.321 234.251 158.114 234.386 157.934 234.566C157.754 234.746 157.61 234.974 157.502 235.25C157.4 235.52 157.349 235.835 157.349 236.195V242H155.747V236.195C155.747 235.463 155.6 234.917 155.306 234.557C155.012 234.197 154.583 234.017 154.019 234.017C153.623 234.017 153.254 234.125 152.912 234.341C152.576 234.551 152.267 234.839 151.985 235.205V242H150.383Z" fill="#777A95"/>
<path d="M168.775 232.739C169.321 232.739 169.825 232.832 170.287 233.018C170.749 233.198 171.148 233.462 171.484 233.81C171.82 234.152 172.081 234.578 172.267 235.088C172.459 235.592 172.555 236.168 172.555 236.816C172.555 237.068 172.528 237.236 172.474 237.32C172.42 237.404 172.318 237.446 172.168 237.446H166.102C166.114 238.022 166.192 238.523 166.336 238.949C166.48 239.375 166.678 239.732 166.93 240.02C167.182 240.302 167.482 240.515 167.83 240.659C168.178 240.797 168.568 240.866 169 240.866C169.402 240.866 169.747 240.821 170.035 240.731C170.329 240.635 170.581 240.533 170.791 240.425C171.001 240.317 171.175 240.218 171.313 240.128C171.457 240.032 171.58 239.984 171.682 239.984C171.814 239.984 171.916 240.035 171.988 240.137L172.438 240.722C172.24 240.962 172.003 241.172 171.727 241.352C171.451 241.526 171.154 241.67 170.836 241.784C170.524 241.898 170.2 241.982 169.864 242.036C169.528 242.096 169.195 242.126 168.865 242.126C168.235 242.126 167.653 242.021 167.119 241.811C166.591 241.595 166.132 241.283 165.742 240.875C165.358 240.461 165.058 239.951 164.842 239.345C164.626 238.739 164.518 238.043 164.518 237.257C164.518 236.621 164.614 236.027 164.806 235.475C165.004 234.923 165.286 234.446 165.652 234.044C166.018 233.636 166.465 233.318 166.993 233.09C167.521 232.856 168.115 232.739 168.775 232.739ZM168.811 233.918C168.037 233.918 167.428 234.143 166.984 234.593C166.54 235.037 166.264 235.655 166.156 236.447H171.115C171.115 236.075 171.064 235.736 170.962 235.43C170.86 235.118 170.71 234.851 170.512 234.629C170.314 234.401 170.071 234.227 169.783 234.107C169.501 233.981 169.177 233.918 168.811 233.918Z" fill="#777A95"/>
<path d="M174.605 242V232.883H175.559C175.787 232.883 175.931 232.994 175.991 233.216L176.117 234.206C176.513 233.768 176.954 233.414 177.44 233.144C177.932 232.874 178.499 232.739 179.141 232.739C179.639 232.739 180.077 232.823 180.455 232.991C180.839 233.153 181.157 233.387 181.409 233.693C181.667 233.993 181.862 234.356 181.994 234.782C182.126 235.208 182.192 235.679 182.192 236.195V242H180.59V236.195C180.59 235.505 180.431 234.971 180.113 234.593C179.801 234.209 179.321 234.017 178.673 234.017C178.199 234.017 177.755 234.131 177.341 234.359C176.933 234.587 176.555 234.896 176.207 235.286V242H174.605Z" fill="#777A95"/>
<path d="M187.37 242.144C186.65 242.144 186.095 241.943 185.705 241.541C185.321 241.139 185.129 240.56 185.129 239.804V234.224H184.031C183.935 234.224 183.854 234.197 183.788 234.143C183.722 234.083 183.689 233.993 183.689 233.873V233.234L185.183 233.045L185.552 230.228C185.564 230.138 185.603 230.066 185.669 230.012C185.735 229.952 185.819 229.922 185.921 229.922H186.731V233.063H189.341V234.224H186.731V239.696C186.731 240.08 186.824 240.365 187.01 240.551C187.196 240.737 187.436 240.83 187.73 240.83C187.898 240.83 188.042 240.809 188.162 240.767C188.288 240.719 188.396 240.668 188.486 240.614C188.576 240.56 188.651 240.512 188.711 240.47C188.777 240.422 188.834 240.398 188.882 240.398C188.966 240.398 189.041 240.449 189.107 240.551L189.575 241.316C189.299 241.574 188.966 241.778 188.576 241.928C188.186 242.072 187.784 242.144 187.37 242.144Z" fill="#777A95"/>
</svg>
